<?xml version="1.0" encoding="utf-8"?>
<!-- Generator: Adobe Illustrator 16.0.0, SVG Export Plug-In . SVG Version: 6.00 Build 0)  -->
<!DOCTYPE svg PUBLIC "-//W3C//DTD SVG 1.1 Basic//EN" "http://www.w3.org/Graphics/SVG/1.1/DTD/svg11-basic.dtd">
<svg version="1.1" baseProfile="basic" id="Layer_1"
	 xmlns="http://www.w3.org/2000/svg" xmlns:xlink="http://www.w3.org/1999/xlink" x="0px" y="0px" width="3000px" height="3000px"
	 viewBox="0 0 3000 3000" xml:space="preserve">
<g transform="translate(3.388336)">
	<path fill="#92BE57" d="M1244.245,1668.867h-22.344l-7.457-57.732c-14.901,13.202-28.451,29.281-45.583,39.865
		c-36.531,23.106-82.347,25.935-121.432,7.442c-35.532-15.276-53.933-43.961-55.269-82.556
		c-1.271-35.375,16.158-61.362,44.688-80.296c32.406-21.527,69.805-25.91,107.347-28.153c21.825-1.336,43.883,0,65.488,0
		c12.139-73.373-22.355-106.973-79.648-111.744c-32.395-2.489-64.554,7.184-90.205,27.115c-3.346,2.464-6.562,5.148-9.908,7.456
		c-1.724,0.648-3.526,1.077-5.368,1.272l-13.097-17.585c45.594-42.899,111.99-55.296,169.981-31.747
		c41.939,19.531,56.839,55.958,58.11,98.713c1.491,51.171,0,102.445,0.816,153.592
		C1240.521,1618.578,1242.753,1642.568,1244.245,1668.867L1244.245,1668.867z M1211.682,1491.946c-22.344,0-42.378-1.051-62.415,0
		c-30.253,1.855-60.495,4.694-88.507,18.168c-45.516,21.916-57.136,84.111-21.448,114.352
		c42.456,35.921,119.708,23.835,150.402-22.331C1211.759,1568.444,1213.705,1531.876,1211.682,1491.946z M1816.505,1330.444
		c94.252,0.895,166.508,63.997,166.717,172.228c0,96.844-70.701,167.155-166.795,166.793
		c-96.092-0.364-166.844-67.044-166.56-170.592C1650.232,1392.937,1722.929,1331.184,1816.505,1330.444z M1956.327,1499.403
		c3.449-61.234-37.245-132.013-115.079-142.738c-41.574-5.731-80.919,0-113.831,28.387c-48.939,42.302-59.602,96.845-45.154,157.016
		c17.429,74.074,87.3,113.754,158.985,100.579C1912.91,1629.472,1956.246,1575.603,1956.327,1499.403z M2316.807,1668.583h-25.779
		v-336.881h21.32l3.059,66.524c12.865-14.146,22.721-26.585,34.234-37.243c47.463-43.949,129.473-41.187,170.686,6.485
		c21.916,25.326,29.125,56.838,29.332,89.387c0.391,60.209,0,120.38,0,180.578v30.837h-24.326
		c-0.469-7.884-1.064-14.886-1.143-21.733v-173.433c-0.104-13.656-1.244-27.284-3.424-40.745
		c-14.16-87.313-98.605-93.345-147.057-59.601c-40.303,27.776-54.982,69.507-56.461,115.828
		c-1.713,52.962-0.518,106.078-0.518,159.04C2316.807,1654.058,2316.807,1660.439,2316.807,1668.583z M2844.809,1383.262
		l-23.238,12.955c-3.111-4.24-5.861-8.118-8.869-11.839c-25.236-31.733-77.162-37.243-113.133-20.036
		c-17.922,7.769-29.723,25.184-30.344,44.688c-1.324,22.355,2.254,42.236,23.703,53.647c11.646,5.835,23.785,10.646,36.285,14.37
		c20.854,6.781,42.301,12.072,62.998,19.14c32.99,10.088,55.865,40.044,56.93,74.514c2.436,38.774-20.205,74.772-56.254,89.374
		c-52.236,20.671-111.76,8.353-151.52-31.355c-4.822-5.136-8.766-11.101-14.16-17.948l21.32-13.927
		c16.365,25.675,43.207,42.897,73.373,47.074c31.459,4.901,60.508,0,83.797-24.146c29.361-30.397,22.357-77.834-16.08-95.652
		c-21.475-8.664-43.416-16.106-65.697-22.345c-11.256-3.799-22.355-7.443-33.533-11.995c-35.74-14.887-50.783-42.677-48.189-80.971
		c1.143-32.019,22.33-59.846,52.885-69.509c48.785-18.311,94.846-11.386,135.047,23.252
		C2835.783,1368.894,2840.711,1375.846,2844.809,1383.262z M1584.848,1376.558l-18.649,17.65c-4.564-2.658-8.921-5.667-13.045-9.014
		c-45.946-43.806-129.68-40.227-177.427,14.305c-49.617,56.695-47.529,154.135,5.432,207.097
		c46.282,45.413,118.411,51.198,171.345,13.771c4.746-3.422,9.311-7.442,14.888-11.695l17.065,16.314
		c-16.988,21.396-38.722,31.225-62.428,38.15c-76.576,22.357-154.875-9.312-190.849-79.935
		c-39.331-77.105-18.479-182.886,59.588-230.115c54.091-32.77,128.203-29.787,177.583,9.168
		C1573.876,1366.274,1578.492,1370.89,1584.848,1376.558z M2091.477,1668.428h-25.34v-336.791h21.373l5.73,59.589
		c29.801-43.494,66.24-65.93,117.645-59.589c0.674,4.475,1.402,7.444,1.557,11.166c-0.025,3.32-0.209,6.626-0.596,9.908
		c-1.869,0.973-2.906,2.021-3.865,1.944c-67.068-5.445-96.844,43.805-108.256,87.896c-4.746,19.519-7.262,39.514-7.443,59.602
		c-0.961,49.979,0,99.982,0,149.961C2092.281,1657.248,2091.84,1661.944,2091.477,1668.428z"/>
	<path fill="#92BE57" d="M462.681,1066.508c47.358,18.934,74.747,56.825,92.748,100.036c39.5,9.466,77.496,16.196,113.676,27.465
		c66.318,20.567,121.159,58.744,157.157,119.46c23.978,40.461,37.891,84.215,27.661,132.623
		c-4.449,21.891-15.251,31.357-37.323,31.357H180.369c-3.787,0-7.47,0-10.789-0.663c-18.946-10.23-21.981-28.411-25.676-46.14
		c0.182-23.665,3.527-47.217,9.946-70c11.309-37.321,31.914-71.155,59.874-98.336c49.822-48.784,111.213-74.267,178.568-86.678
		c21.41-3.981,42.924-6.822,64.891-10.231c9.48-36.09,10.894-68.962-12.682-98.711L462.681,1066.508z M187.19,1508.908h626.194
		c1.231,18.946,3.879,36.479,3.411,54.09c-2.268,74.643-18.194,145.524-62.803,207.356
		c-41.861,57.475-103.291,97.622-172.707,112.924c-23.795,4.539-45.401,16.861-61.389,35.066
		c-5.668,5.576-11.814,10.66-18.376,15.147c-9.338-5.604-17.935-12.398-25.573-20.179c-12.8-17.041-29.838-23.291-49.641-27.752
		c-89.426-20.281-159.441-67.536-202.545-150.324c-24.277-48.968-37.387-102.706-38.359-157.377
		C184.454,1555.425,186.633,1532.885,187.19,1508.908z"/>
</g>
</svg>
