<?xml version="1.0" encoding="utf-8"?>
<!-- Generator: Adobe Illustrator 15.0.0, SVG Export Plug-In  -->
<!DOCTYPE svg PUBLIC "-//W3C//DTD SVG 1.1//EN" "http://www.w3.org/Graphics/SVG/1.1/DTD/svg11.dtd" [
	<!ENTITY ns_flows "http://ns.adobe.com/Flows/1.0/">
]>
<svg version="1.1"
	 xmlns="http://www.w3.org/2000/svg" xmlns:xlink="http://www.w3.org/1999/xlink" xmlns:a="http://ns.adobe.com/AdobeSVGViewerExtensions/3.0/"
	 x="0px" y="0px" width="242px" height="20px" viewBox="-1 -0.669 242 20" enable-background="new -1 -0.669 242 20"
	 xml:space="preserve">
<defs>
</defs>
<path fill="#FF5000" d="M8.706,18.694L0,9.928L8.706,1.13L8.699,6.846c-1.705,0-3.086,1.382-3.086,3.086
	c0,1.703,1.381,3.086,3.086,3.086L8.706,18.694z"/>
<path fill="#FF5000" d="M231.103,18.694l8.705-8.766l-8.705-8.798l0.007,5.716c1.703,0,3.085,1.382,3.085,3.086
	c0,1.703-1.382,3.086-3.085,3.086L231.103,18.694z"/>
<path fill="#0D2240" d="M15.374,13.467V6.176c0-3.316,1.848-5.214,5.189-5.214h15.189c0.558,0,0.835,0.279,0.835,0.835v1.57
	c0,0.531-0.277,0.81-0.835,0.81H21.525c-1.62,0-2.506,0.885-2.506,2.506v6.277c0,1.621,0.887,2.506,2.506,2.506h14.227
	c0.558,0,0.835,0.279,0.835,0.81v1.569c0,0.557-0.277,0.835-0.835,0.835H20.563C17.222,18.681,15.374,16.783,15.374,13.467z"/>
<path fill="#0D2240" d="M43.447,15.771H43.7c0.506,0,0.734,0.227,0.734,0.733v1.442c0,0.506-0.228,0.734-0.734,0.734h-1.062
	c-2.332,0-3.597-1.266-3.597-3.595V0.734C39.042,0.228,39.296,0,39.776,0h1.848c0.507,0,0.733,0.228,0.733,0.734v13.923
	C42.357,15.391,42.662,15.771,43.447,15.771z"/>
<path fill="#0D2240" d="M49.928,2.633c0,0.481-0.229,0.734-0.735,0.734h-1.848c-0.48,0-0.733-0.253-0.733-0.734V0.734
	C46.611,0.228,46.864,0,47.345,0h1.848c0.506,0,0.735,0.228,0.735,0.734V2.633z M51.016,15.771h0.252
	c0.506,0,0.734,0.227,0.734,0.733v1.442c0,0.506-0.228,0.734-0.734,0.734h-1.063c-2.328,0-3.594-1.266-3.594-3.595V6.253
	c0-0.507,0.253-0.735,0.733-0.735h1.848c0.506,0,0.735,0.228,0.735,0.735v8.404C49.928,15.391,50.231,15.771,51.016,15.771z"/>
<path fill="#0D2240" d="M69.976,16.504v1.442c0,0.506-0.229,0.734-0.709,0.734H58.052c-2.379,0-3.974-1.595-3.974-3.975V9.492
	c0-2.379,1.595-3.974,3.974-3.974h11.214c0.48,0,0.709,0.228,0.709,0.735v1.443c0,0.505-0.229,0.733-0.709,0.733H59.115
	c-1.089,0-1.746,0.659-1.746,1.747v3.848c0,1.088,0.656,1.747,1.746,1.747h10.151C69.747,15.771,69.976,15.999,69.976,16.504z"/>
<path fill="#0D2240" d="M75.139,18.681h-1.848c-0.507,0-0.734-0.228-0.734-0.734V0.734C72.557,0.228,72.784,0,73.291,0h1.848
	c0.48,0,0.709,0.228,0.709,0.734v9.872h4.176l4.987-4.708c0.279-0.304,0.531-0.38,1.114-0.38h2.279c0.532,0,0.631,0.583,0.328,0.887
	l-6.049,5.644l6.152,5.747c0.304,0.304,0.201,0.885-0.329,0.885h-2.331c-0.582,0-0.833-0.076-1.138-0.379l-5.038-4.784h-4.151v4.429
	C75.848,18.453,75.619,18.681,75.139,18.681z"/>
<path fill="#0D2240" d="M94.276,6.049v0.329c0,1.318,0.708,1.874,2.253,1.874h10.681c3.342,0,5.443,1.164,5.443,4.456v1.494
	c0,3.315-2.101,4.479-5.443,4.479H91.744c-0.557,0-0.835-0.279-0.835-0.835v-1.569c0-0.531,0.278-0.81,0.835-0.81h14.985
	c1.545,0,2.254-0.556,2.254-1.874v-0.329c0-1.316-0.709-1.873-2.254-1.873H96.047c-3.342,0-5.443-1.165-5.443-4.456V5.443
	c0-3.317,2.102-4.481,5.443-4.481h15.239c0.557,0,0.834,0.279,0.834,0.835v1.57c0,0.531-0.278,0.81-0.834,0.81H96.529
	C94.984,4.177,94.276,4.758,94.276,6.049z"/>
<path fill="#0D2240" d="M140.979,18.681h-5.821c-2.204,0-3.748-0.81-4.533-2.329c-0.81,1.519-2.327,2.329-4.53,2.329h-5.822
	c-3.367,0-5.215-1.898-5.215-5.214V1.797c0-0.557,0.279-0.835,0.835-0.835h2c0.531,0,0.81,0.279,0.81,0.835V12.96
	c0,1.621,0.885,2.506,2.506,2.506h5.088c1.62,0,2.506-0.886,2.506-2.506V1.797c0-0.557,0.278-0.835,0.81-0.835h2.024
	c0.532,0,0.811,0.279,0.811,0.835V12.96c0,1.621,0.886,2.506,2.505,2.506h5.089c1.62,0,2.505-0.886,2.505-2.506V1.797
	c0-0.557,0.279-0.835,0.811-0.835h2c0.557,0,0.835,0.279,0.835,0.835v11.67C146.193,16.783,144.346,18.681,140.979,18.681z"/>
<path fill="#0D2240" d="M152.851,17.846c0,0.557-0.279,0.835-0.835,0.835h-2c-0.557,0-0.834-0.279-0.834-0.835V1.797
	c0-0.557,0.278-0.835,0.834-0.835h2c0.557,0,0.835,0.279,0.835,0.835V17.846z"/>
<path fill="#0D2240" d="M167.937,17.846c0,0.557-0.278,0.835-0.835,0.835h-2c-0.557,0-0.834-0.279-0.834-0.835V4.177h-8.405
	c-0.557,0-0.81-0.279-0.81-0.81v-1.57c0-0.557,0.252-0.835,0.81-0.835h20.479c0.532,0,0.81,0.279,0.81,0.835v1.57
	c0,0.531-0.278,0.81-0.81,0.81h-8.405V17.846z"/>
<path fill="#0D2240" d="M178.822,13.467V6.176c0-3.316,1.848-5.214,5.19-5.214h15.189c0.556,0,0.833,0.279,0.833,0.835v1.57
	c0,0.531-0.278,0.81-0.833,0.81h-14.227c-1.62,0-2.507,0.885-2.507,2.506v6.277c0,1.621,0.887,2.506,2.507,2.506h14.227
	c0.556,0,0.833,0.279,0.833,0.81v1.569c0,0.557-0.278,0.835-0.833,0.835h-15.189C180.67,18.681,178.822,16.783,178.822,13.467z"/>
<path fill="#0D2240" d="M203.401,0.962h2c0.558,0,0.835,0.279,0.835,0.835v6.404h14.683V1.797c0-0.557,0.279-0.835,0.833-0.835
	h2.001c0.558,0,0.835,0.279,0.835,0.835v16.048c0,0.557-0.277,0.835-0.835,0.835h-2.001c-0.555,0-0.833-0.279-0.833-0.835v-6.403
	h-14.683v6.403c0,0.557-0.278,0.835-0.835,0.835h-2c-0.556,0-0.835-0.279-0.835-0.835V1.797
	C202.566,1.241,202.845,0.962,203.401,0.962z"/>
<path fill="#F05323" d="M240,17.423c0,0.388-0.137,0.719-0.412,0.994c-0.274,0.274-0.604,0.413-0.992,0.413
	c-0.388,0-0.719-0.139-0.994-0.413c-0.275-0.275-0.412-0.606-0.412-0.994s0.137-0.72,0.412-0.995
	c0.274-0.274,0.606-0.411,0.994-0.411c0.389,0,0.718,0.137,0.992,0.411C239.863,16.703,240,17.035,240,17.423z M239.843,17.423
	c0-0.345-0.122-0.64-0.365-0.884c-0.244-0.244-0.539-0.366-0.882-0.366c-0.346,0-0.641,0.123-0.885,0.366
	c-0.243,0.244-0.365,0.539-0.365,0.884c0,0.343,0.122,0.639,0.365,0.883c0.244,0.243,0.539,0.367,0.885,0.367
	c0.343,0,0.638-0.124,0.882-0.367C239.722,18.062,239.843,17.766,239.843,17.423z M237.948,16.604h0.719
	c0.174,0,0.303,0.036,0.389,0.109c0.086,0.074,0.129,0.164,0.129,0.271c0,0.097-0.031,0.178-0.094,0.245
	c-0.063,0.067-0.167,0.116-0.308,0.146l0.401,0.512c0.049,0.066,0.093,0.108,0.126,0.131c0.023,0.015,0.056,0.024,0.098,0.029v0.063
	h-0.336l-0.558-0.705h-0.147v0.39c0,0.106,0.013,0.173,0.037,0.202c0.025,0.027,0.076,0.044,0.152,0.049v0.063h-0.625v-0.063
	c0.077-0.005,0.129-0.023,0.153-0.052c0.026-0.031,0.038-0.093,0.038-0.191v-0.905c0-0.086-0.012-0.146-0.038-0.176
	c-0.024-0.031-0.069-0.049-0.136-0.056V16.604z M238.368,17.31c0.045,0.002,0.079,0.003,0.101,0.003
	c0.154,0,0.267-0.029,0.336-0.087c0.07-0.059,0.106-0.134,0.106-0.229c0-0.089-0.031-0.163-0.094-0.223
	c-0.064-0.06-0.15-0.089-0.259-0.089c-0.052,0-0.115,0.011-0.19,0.036V17.31z"/>
</svg>
